{
  "asset": {
    "version": "2.0",
    "generator": "Blufus the Code Puppy \ud83d\udc36"
  },
  "scene": 0,
  "scenes": [
    {
      "name": "Scene",
      "nodes": [
        0
      ]
    }
  ],
  "nodes": [
    {
      "name": "Root",
      "children": [
        1,
        2
      ]
    },
    {
      "name": "CharacterMesh",
      "mesh": 0,
      "skin": 0
    },
    {
      "name": "Hips",
      "translation": [
        0,
        0.85,
        0
      ],
      "children": [
        3,
        9,
        11
      ]
    },
    {
      "name": "Spine",
      "translation": [
        0,
        0.25,
        0
      ],
      "children": [
        4,
        5,
        7
      ]
    },
    {
      "name": "Head",
      "translation": [
        0,
        0.35,
        0
      ]
    },
    {
      "name": "ArmL",
      "translation": [
        -0.35,
        0,
        0
      ],
      "children": [
        6
      ]
    },
    {
      "name": "ForearmL",
      "translation": [
        0,
        -0.22,
        0
      ]
    },
    {
      "name": "ArmR",
      "translation": [
        0.35,
        0,
        0
      ],
      "children": [
        8
      ]
    },
    {
      "name": "ForearmR",
      "translation": [
        0,
        -0.22,
        0
      ]
    },
    {
      "name": "LegL",
      "translation": [
        -0.15,
        0,
        0
      ],
      "children": [
        10
      ]
    },
    {
      "name": "ShinL",
      "translation": [
        0,
        -0.38,
        0
      ]
    },
    {
      "name": "LegR",
      "translation": [
        0.15,
        0,
        0
      ],
      "children": [
        12
      ]
    },
    {
      "name": "ShinR",
      "translation": [
        0,
        -0.38,
        0
      ]
    }
  ],
  "meshes": [
    {
      "name": "CharacterBody",
      "primitives": [
        {
          "attributes": {
            "POSITION": 0,
            "NORMAL": 1,
            "JOINTS_0": 3,
            "WEIGHTS_0": 4
          },
          "indices": 2,
          "material": 0
        }
      ]
    }
  ],
  "skins": [
    {
      "name": "Armature",
      "inverseBindMatrices": 5,
      "joints": [
        2,
        3,
        4,
        5,
        6,
        7,
        8,
        9,
        10,
        11,
        12
      ],
      "skeleton": 2
    }
  ],
  "materials": [
    {
      "name": "Skin",
      "doubleSided": true,
      "pbrMetallicRoughness": {
        "baseColorFactor": [
          0.3,
          0.55,
          0.95,
          1.0
        ],
        "metallicFactor": 0.1,
        "roughnessFactor": 0.7
      }
    }
  ],
  "animations": [
    {
      "name": "Wave",
      "samplers": [
        {
          "input": 6,
          "output": 7,
          "interpolation": "LINEAR"
        },
        {
          "input": 8,
          "output": 9,
          "interpolation": "LINEAR"
        }
      ],
      "channels": [
        {
          "sampler": 0,
          "target": {
            "node": 7,
            "path": "rotation"
          }
        },
        {
          "sampler": 1,
          "target": {
            "node": 4,
            "path": "rotation"
          }
        }
      ]
    }
  ],
  "accessors": [
    {
      "bufferView": 0,
      "componentType": 5126,
      "count": 3032,
      "type": "VEC3",
      "min": [
        -0.47,
        0.009999999999999981,
        -0.14
      ],
      "max": [
        0.47,
        1.67,
        0.14
      ]
    },
    {
      "bufferView": 1,
      "componentType": 5126,
      "count": 3032,
      "type": "VEC3"
    },
    {
      "bufferView": 2,
      "componentType": 5123,
      "count": 17664,
      "type": "SCALAR",
      "min": [
        0
      ],
      "max": [
        3031
      ]
    },
    {
      "bufferView": 3,
      "componentType": 5121,
      "count": 3032,
      "type": "VEC4"
    },
    {
      "bufferView": 4,
      "componentType": 5126,
      "count": 3032,
      "type": "VEC4"
    },
    {
      "bufferView": 5,
      "componentType": 5126,
      "count": 11,
      "type": "MAT4"
    },
    {
      "bufferView": 6,
      "componentType": 5126,
      "count": 5,
      "type": "SCALAR",
      "min": [
        0.0
      ],
      "max": [
        1.2
      ]
    },
    {
      "bufferView": 7,
      "componentType": 5126,
      "count": 5,
      "type": "VEC4"
    },
    {
      "bufferView": 8,
      "componentType": 5126,
      "count": 5,
      "type": "SCALAR",
      "min": [
        0.0
      ],
      "max": [
        1.2
      ]
    },
    {
      "bufferView": 9,
      "componentType": 5126,
      "count": 5,
      "type": "VEC4"
    }
  ],
  "bufferViews": [
    {
      "buffer": 0,
      "byteOffset": 0,
      "byteLength": 36384,
      "target": 34962
    },
    {
      "buffer": 0,
      "byteOffset": 36384,
      "byteLength": 36384,
      "target": 34962
    },
    {
      "buffer": 0,
      "byteOffset": 72768,
      "byteLength": 35328,
      "target": 34963
    },
    {
      "buffer": 0,
      "byteOffset": 108096,
      "byteLength": 12128,
      "target": 34962
    },
    {
      "buffer": 0,
      "byteOffset": 120224,
      "byteLength": 48512,
      "target": 34962
    },
    {
      "buffer": 0,
      "byteOffset": 168736,
      "byteLength": 704
    },
    {
      "buffer": 0,
      "byteOffset": 169440,
      "byteLength": 20
    },
    {
      "buffer": 0,
      "byteOffset": 169460,
      "byteLength": 80
    },
    {
      "buffer": 0,
      "byteOffset": 169540,
      "byteLength": 20
    },
    {
      "buffer": 0,
      "byteOffset": 169560,
      "byteLength": 80
    }
  ],
  "buffers": [
    {
      "byteLength": 169640,
      "uri": "data:application/octet-stream;base64,"
    }
  ]
}